<?xml version="1.0" encoding="utf-8"?>
<!-- Generator: Adobe Illustrator 21.0.0, SVG Export Plug-In . SVG Version: 6.00 Build 0)  -->
<svg version="1.1" id="圖層_1" xmlns="http://www.w3.org/2000/svg" xmlns:xlink="http://www.w3.org/1999/xlink" x="0px" y="0px"
	 viewBox="0 0 50 50" style="enable-background:new 0 0 50 50;" xml:space="preserve">
<g>
	<g>
		<g>
			<g>
				<path d="M24.2,36.9c-5.3,0-6.2-5-6.2-5c0-0.1,0.1-0.3,0.2-0.3l0.3-0.1c0,0,0,0,0,0c0.1,0,0.2,0.1,0.3,0.2c0,0.2,0.8,4.3,5.4,4.3
					c4.5,0,5.5-4.4,5.6-4.7l0-17.3h-5.6c-0.1,0-0.3-0.1-0.3-0.3v-0.3c0-0.1,0.1-0.3,0.3-0.3h6.2c0.1,0,0.3,0.1,0.3,0.3v17.9
					c0,0,0,0,0,0C30.7,31.5,29.6,36.9,24.2,36.9z"/>
				<path d="M30.4,13.5v17.9c0,0.1-1.1,5.2-6.2,5.2c-5.1,0-6-4.8-6-4.8l0.3-0.1c0,0.2,0.8,4.5,5.7,4.5c4.9,0,5.9-4.9,5.9-4.9l0-17.6
					h-5.9v-0.3H30.4 M30.4,13h-6.2c-0.3,0-0.5,0.2-0.5,0.5v0.3c0,0.3,0.2,0.5,0.5,0.5h5.3l0,17c-0.1,0.5-1.1,4.5-5.3,4.5
					c-1.8,0-3.3-0.7-4.2-2c-0.7-1-0.9-2.1-0.9-2.1c0-0.3-0.3-0.4-0.5-0.4c0,0-0.1,0-0.1,0l-0.3,0.1c-0.3,0-0.5,0.3-0.4,0.6
					c0,0.1,0.9,5.2,6.5,5.2c5.5,0,6.7-5.6,6.7-5.7c0,0,0-0.1,0-0.1V13.5C30.9,13.2,30.7,13,30.4,13L30.4,13z"/>
			</g>
		</g>
		<g>
			<g>
				<path d="M0.5,25.1c0-13.7,11.1-24.8,24.8-24.8c2.8,0,5.6,0.5,8.1,1.4c0.1,0,0.2,0.1,0.3,0.1l0.2-0.2c-0.1,0-0.2-0.1-0.3-0.1
					C31,0.5,28.2,0,25.2,0C11.4,0,0.2,11.2,0.2,25.1c0,2.9,0.5,5.8,1.4,8.4c0,0.1,0.1,0.2,0.1,0.3L2,33.5c0-0.1-0.1-0.2-0.1-0.3
					C1,30.7,0.5,27.9,0.5,25.1z"/>
			</g>
			<g>
				<path d="M47,13.3c0.1,0.1,0.1,0.2,0.1,0.3l0.2-0.2c-0.1-0.1-0.1-0.2-0.2-0.3c-0.2-0.4-0.5-0.9-0.8-1.3c-0.1-0.1-0.1-0.2-0.2-0.3
					l-0.2,0.2c0.1,0.1,0.1,0.2,0.2,0.3C46.5,12.4,46.8,12.8,47,13.3z"/>
			</g>
			<g>
				<path d="M48.6,15.9c0-0.1-0.1-0.2-0.1-0.3l-0.2,0.2c0,0.1,0.1,0.2,0.1,0.3c1.1,2.8,1.7,5.8,1.7,9c0,13.7-11.1,24.8-24.8,24.8
					c-3.2,0-6.2-0.6-9-1.7c-0.1,0-0.2-0.1-0.3-0.1c-0.8-0.3-1.5-0.7-2.3-1c-0.1-0.1-0.2-0.1-0.3-0.1c-0.4-0.2-0.9-0.5-1.3-0.8
					C12,46,12,46,11.9,45.9c-0.5-0.3-1.1-0.7-1.6-1.1c-0.1-0.1-0.2-0.1-0.2-0.2c-1.8-1.4-3.4-3-4.7-4.8c-0.1-0.1-0.1-0.2-0.2-0.3
					l-0.2,0.2C5,39.9,5,39.9,5.1,40c1.3,1.8,2.9,3.4,4.7,4.8C9.9,44.9,10,45,10.1,45c0.5,0.4,1,0.8,1.6,1.1c0.1,0.1,0.2,0.1,0.3,0.2
					c0.4,0.3,0.9,0.5,1.3,0.8c0.1,0.1,0.2,0.1,0.3,0.2c0.7,0.4,1.5,0.7,2.2,1.1c0.1,0,0.2,0.1,0.3,0.1c2.8,1.1,5.9,1.8,9.2,1.8
					c13.8,0,25.1-11.3,25.1-25.1C50.3,21.8,49.7,18.7,48.6,15.9z"/>
			</g>
			<g>
				<path d="M45.2,9.9c-0.1-0.1-0.1-0.2-0.2-0.2l-0.2,0.2c0.1,0.1,0.1,0.2,0.2,0.2L45.2,9.9z"/>
			</g>
		</g>
	</g>
</g>
</svg>
